<svg>
    <g transform="translate(0,67.00540161132812)">
        <g fill-rule="" class="tp-name iconsvg-namesvg" transform="translate(0,0)">
            <g transform="scale(1)">
                <g>
                    <path id="mini-logo-elba" d="M13.71-35.1L13.71-35.1Q16.95-35.1 20-33.01L20-33.01Q21.14-32.28 21.65-30.37L21.65-30.37Q21.96-29.29 21.96-28.09L21.96-28.09 21.96-27.8Q21.96-23.87 18.54-19.11L18.54-19.11Q17.33-17.68 16.41-17.08L16.41-17.08Q14.38-15.81 12.57-15.81L12.57-15.81 12.19-15.81Q10.16-15.81 8.47-17.36L8.47-17.36 8.44-17.36Q7.43-13.87 7.43-11.93L7.43-11.93Q7.43-9.52 9.01-8.92L9.01-8.92Q9.55-8.73 9.97-8.73L9.97-8.73 10.25-8.73Q13.39-8.73 18.88-14.38L18.88-14.38Q22.38-18.19 24.31-21.01L24.31-21.01Q26.6-24.34 28.69-28.25L28.69-28.25Q29.07-28.85 29.29-28.85L29.29-28.85Q29.71-28.85 29.71-28.34L29.71-28.34Q29.71-26.63 26.03-19.42L26.03-19.42Q24.03-15.62 20.6-11.43L20.6-11.43Q18.15-8.57 16.25-7.11L16.25-7.11Q12.12-4.06 7.81-4.06L7.81-4.06 7.4-4.06Q5.3-4.06 4.03-4.79L4.03-4.79Q1.59-6 0.6-8.76L0.6-8.76Q0-10.35 0-11.9L0-11.9 0-12.5Q0-14.6 1.62-19.65L1.62-19.65Q3.27-24.76 5.24-28.18L5.24-28.18Q6.19-29.96 7.87-31.99L7.87-31.99Q9.68-33.86 10.54-34.25L10.54-34.25Q11.84-35.1 13.71-35.1ZM9.24-19.55L9.24-19.55Q9.93-18.85 10.76-18.85L10.76-18.85 10.79-18.85Q12.73-18.85 15.23-22.76L15.23-22.76Q15.9-23.8 16.6-25.68L16.6-25.68Q17.42-28.22 17.42-29.68L17.42-29.68 17.42-29.99Q17.42-31.26 16.69-31.26L16.69-31.26 16.63-31.26Q14.47-31.26 10.12-21.74L10.12-21.74Q9.46-20.19 9.24-19.55ZM34.72-44.18L34.72-44.18Q36.12-44.08 38.28-42.37L38.28-42.37Q39.04-41.61 39.04-40.88L39.04-40.88 39.04-40.72Q39.04-39.51 36.63-33.86L36.63-33.86Q31.9-22.44 29.48-16.15L29.48-16.15Q28.31-13.23 27.49-9.97L27.49-9.97 27.49-9.81Q27.49-9.49 27.71-9.49L27.71-9.49Q28.85-9.49 34.44-16.31L34.44-16.31Q40.21-23.68 42.05-27.55L42.05-27.55Q42.91-28.95 43.48-28.98L43.48-28.98Q43.83-28.91 43.83-28.34L43.83-28.34Q43.77-25.96 37.55-15.77L37.55-15.77Q30.18-4.19 26.5-4.19L26.5-4.19 26.18-4.19Q23.52-4.19 21.77-6.82L21.77-6.82Q21.14-8.03 21.14-9.05L21.14-9.05 21.14-9.43Q21.14-10.25 22.12-12.73L22.12-12.73Q29.07-32.21 31.33-38.02L31.33-38.02Q32.88-41.96 33.8-43.7L33.8-43.7Q34.09-44.18 34.72-44.18ZM46.02-44.69L46.02-44.69 46.21-44.69Q47.39-44.69 49.67-42.88L49.67-42.88Q50.46-42.12 50.46-41.23L50.46-41.23Q50.46-39.99 47.92-34.06L47.92-34.06 47.13-31.96Q50.37-35.23 52.94-35.23L52.94-35.23 53.26-35.23Q55.57-35.23 57.83-33.58L57.83-33.58Q59.13-32.47 59.48-31.04L59.48-31.04Q59.67-30.25 59.73-28.85L59.73-28.85Q59.73-23.14 55.03-13.62L55.03-13.62Q49.7-4 42.62-4L42.62-4Q38.97-4 36.18-6.54L36.18-6.54Q34.15-8.57 34.15-11.68L34.15-11.68Q34.15-14.82 36.47-21.01L36.47-21.01Q41.07-34.63 44.62-43.07L44.62-43.07Q45.32-44.66 45.73-44.66L45.73-44.66Q45.93-44.69 46.02-44.69ZM40.85-11.04L40.85-11.04Q40.85-9.43 41.58-8.95L41.58-8.95Q41.8-8.85 41.99-8.85L41.99-8.85 42.05-8.85Q43.29-8.85 45.61-11.33L45.61-11.33Q47.19-13.27 48.27-15.52L48.27-15.52Q49.77-18.5 50.94-22.31L50.94-22.31Q52.11-26.31 52.11-28.69L52.11-28.69Q52.11-31.04 50.75-31.04L50.75-31.04Q47.83-31.04 43.35-20.76L43.35-20.76Q40.85-14.54 40.85-11.04ZM72.14-35.29L72.14-35.29 72.52-35.29Q75.38-35.29 78.23-32.02L78.23-32.02Q78.68-31.42 79.35-30.37L79.35-30.37Q80.49-33.86 80.87-34.44L80.87-34.44Q81.35-35.23 81.92-35.23L81.92-35.23 82.2-35.23Q83.31-35.23 85.53-33.52L85.53-33.52Q86.36-32.72 86.36-32.02L86.36-32.02 86.36-31.83Q86.36-30.53 83.54-24.09L83.54-24.09Q80.81-17.77 78.9-12.09L78.9-12.09Q78.46-10.6 78.3-9.81L78.3-9.81 78.3-9.65Q78.3-9.49 78.46-9.39L78.46-9.39 78.55-9.39Q79.66-9.39 85.19-16.09L85.19-16.09Q91.34-24.06 92.99-27.58L92.99-27.58Q93.72-28.75 94.2-28.85L94.2-28.85 94.39-28.85Q94.61-28.69 94.61-28.37L94.61-28.37 94.61-28.12Q94.61-26.15 89.15-16.88L89.15-16.88Q86.74-12.92 83.95-9.33L83.95-9.33Q79.73-4.09 77.54-4.09L77.54-4.09 77.31-4.09Q77.25-4.09 77.19-4.06L77.19-4.06Q77.16-4.09 77.09-4.09L77.09-4.09 76.97-4.09Q74.58-4.09 72.87-6.28L72.87-6.28Q71.92-7.71 71.92-9.11L71.92-9.11 71.98-9.71Q70.94-8.25 68.97-6.28L68.97-6.28Q66.56-4.06 64.27-4.06L64.27-4.06 63.79-4.06Q60.11-4.06 58.81-7.52L58.81-7.52Q58.43-8.85 58.43-10.28L58.43-10.28 58.43-10.35Q58.43-14.89 61.95-24.15L61.95-24.15Q63.38-27.61 65.41-30.6L65.41-30.6Q68.87-35.29 72.14-35.29ZM66.24-12.92L66.24-12.92Q66.24-11.87 66.75-11.52L66.75-11.52 67-11.46Q67.7-11.46 69.32-13.23L69.32-13.23Q71.35-15.33 72.81-17.42L72.81-17.42Q77.16-23.77 77.16-27.74L77.16-27.74 77.16-28.09Q77.16-29.74 75.85-30.37L75.85-30.37Q75.63-30.41 75.44-30.41L75.44-30.41 75.31-30.41Q73.76-30.41 71.51-26.85L71.51-26.85Q69.38-23.17 67.67-18.54L67.67-18.54Q66.4-14.69 66.4-13.87L66.4-13.87Q66.3-13.62 66.24-12.92Z" transform="translate(0, 44.689998626708984)">
                    </path>
                </g> 
            </g>
        </g> 
        <g fill-rule="" class="tp-slogan iconsvg-slogansvg" fill="#f6d33c" transform="translate(5,46.689998626708984)">
            <rect id="" x="0" height="1" y="3.580000400543213" width="10.220001220703125">
            </rect> 
            <rect id="" height="1" y="3.580000400543213" width="10.220001220703125" x="74.38999938964844">
            </rect> 
            <g transform="translate(13.220001220703125,0)">
                <g transform="scale(1)">
                    <path id="mini-logo-strip-mall" d="M1.10-1.72L0.50-1.02C0.85-0.66 1.26-0.38 1.73-0.17C2.20 0.04 2.71 0.14 3.26 0.14C3.68 0.14 4.05 0.09 4.38-0.03C4.71-0.15 4.99-0.31 5.22-0.51C5.45-0.71 5.63-0.95 5.75-1.22C5.88-1.50 5.94-1.79 5.94-2.10C5.94-2.39 5.90-2.64 5.81-2.86C5.73-3.08 5.62-3.27 5.47-3.44C5.33-3.60 5.16-3.75 4.96-3.87C4.76-3.99 4.54-4.10 4.32-4.20L3.20-4.68C3.04-4.74 2.89-4.81 2.74-4.89C2.58-4.97 2.44-5.05 2.32-5.15C2.19-5.25 2.09-5.37 2.01-5.50C1.93-5.63 1.90-5.80 1.90-5.99C1.90-6.35 2.03-6.63 2.30-6.83C2.57-7.04 2.92-7.14 3.36-7.14C3.73-7.14 4.06-7.07 4.35-6.94C4.64-6.81 4.91-6.63 5.15-6.40L5.69-7.04C5.41-7.33 5.07-7.57 4.67-7.75C4.27-7.93 3.83-8.02 3.36-8.02C3-8.02 2.67-7.96 2.37-7.86C2.07-7.76 1.81-7.61 1.59-7.42C1.37-7.23 1.20-7.01 1.07-6.76C0.95-6.50 0.89-6.22 0.89-5.93C0.89-5.64 0.94-5.39 1.03-5.17C1.13-4.95 1.25-4.76 1.40-4.60C1.56-4.44 1.73-4.30 1.92-4.19C2.11-4.08 2.30-3.98 2.48-3.90L3.61-3.41C3.80-3.32 3.97-3.24 4.13-3.16C4.29-3.08 4.43-2.99 4.54-2.89C4.66-2.79 4.75-2.67 4.82-2.53C4.89-2.39 4.92-2.22 4.92-2.02C4.92-1.63 4.78-1.32 4.49-1.09C4.20-0.85 3.80-0.73 3.28-0.73C2.87-0.73 2.47-0.82 2.09-1.00C1.71-1.18 1.38-1.42 1.10-1.72ZM8.88-7.03L8.88 0L9.89 0L9.89-7.03L12.26-7.03L12.26-7.87L6.50-7.87L6.50-7.03ZM14.68-4.14L14.68-7.07L16.00-7.07C16.61-7.07 17.08-6.96 17.41-6.76C17.74-6.55 17.90-6.18 17.90-5.66C17.90-5.15 17.74-4.77 17.41-4.52C17.08-4.27 16.61-4.14 16.00-4.14ZM18 0L19.13 0L17.14-3.43C17.67-3.57 18.10-3.82 18.42-4.19C18.74-4.56 18.90-5.05 18.90-5.66C18.90-6.07 18.83-6.42 18.70-6.70C18.56-6.98 18.37-7.20 18.13-7.38C17.88-7.56 17.59-7.68 17.25-7.76C16.91-7.83 16.54-7.87 16.14-7.87L13.68-7.87L13.68 0L14.68 0L14.68-3.32L16.10-3.32ZM20.65-7.87L20.65 0L21.65 0L21.65-7.87ZM23.81-7.87L23.81 0L24.80 0L24.80-3.12L26.22-3.12C26.65-3.12 27.05-3.17 27.40-3.27C27.76-3.37 28.06-3.52 28.32-3.72C28.58-3.92 28.77-4.17 28.91-4.48C29.05-4.78 29.12-5.14 29.12-5.56C29.12-5.99 29.05-6.35 28.91-6.65C28.77-6.94 28.58-7.18 28.33-7.36C28.07-7.54 27.77-7.67 27.41-7.75C27.05-7.83 26.65-7.87 26.22-7.87ZM26.10-3.94L24.80-3.94L24.80-7.07L26.10-7.07C26.78-7.07 27.29-6.96 27.62-6.74C27.96-6.52 28.13-6.12 28.13-5.56C28.13-5.00 27.96-4.59 27.63-4.33C27.30-4.07 26.79-3.94 26.10-3.94ZM33.14-7.87L33.14 0L34.07 0L34.07-4.33C34.07-4.68 34.05-5.07 34.02-5.50C33.99-5.92 33.96-6.31 33.94-6.66L33.98-6.66L34.61-4.91L36.13-0.79L36.70-0.79L38.21-4.91L38.84-6.66L38.89-6.66C38.86-6.31 38.83-5.92 38.80-5.50C38.77-5.07 38.76-4.68 38.76-4.33L38.76 0L39.71 0L39.71-7.87L38.53-7.87L37.02-3.65L36.47-2.04L36.42-2.04L35.84-3.65L34.32-7.87ZM45.22-3.20L42.85-3.20L43.22-4.40C43.37-4.84 43.50-5.28 43.63-5.72C43.76-6.15 43.88-6.60 44.00-7.06L44.05-7.06C44.18-6.60 44.31-6.15 44.44-5.72C44.56-5.28 44.70-4.84 44.84-4.40ZM45.47-2.40L46.21 0L47.28 0L44.62-7.87L43.49-7.87L40.82 0L41.84 0L42.60-2.40ZM48.40-7.87L48.40 0L52.84 0L52.84-0.85L49.39-0.85L49.39-7.87ZM54.23-7.87L54.23 0L58.67 0L58.67-0.85L55.22-0.85L55.22-7.87Z" transform="translate(-0.504, 8.016)">
                    </path>
                </g>
            </g>
        </g>
    </g>
</svg>